<svg width="1138" height="1138" viewBox="0 0 1138 1138" fill="none" xmlns="http://www.w3.org/2000/svg">
<path d="M569.006 808.745L747.453 1014.8H390.56L569.006 808.745Z" fill="#942625"/>
<path d="M569.006 464.8L949.056 903.644H188.956L569.006 464.8Z" fill="#EE7B74" fill-opacity="0.7"/>
<path d="M569.006 279.196L949.056 718.04H188.956L569.006 279.196Z" fill="#B3271F" fill-opacity="0.8"/>
<path d="M569.006 124.514L879.585 483.139H258.428L569.006 124.514Z" fill="#B24740" fill-opacity="0.8"/>
<path d="M805.518 552.321L392.348 483.309L745.74 483.309L805.518 552.321Z" fill="#70150F" fill-opacity="0.8"/>
<path d="M849.379 788.33L349.584 718.028L788.354 718.028L849.379 788.33Z" fill="#803236"/>
<path d="M679.258 936.061L486.379 903.677L651.435 903.677L679.258 936.061Z" fill="#660F0E"/>
<path d="M837.336 213.428L845.218 250.858H829.454L837.336 213.428Z" fill="white"/>
<path d="M837.336 287.06L829.454 249.631L845.218 249.631L837.336 287.06Z" fill="white"/>
<path d="M874.152 250.244L836.723 258.127L836.723 242.362L874.152 250.244Z" fill="white"/>
<path d="M800.52 250.244L837.95 242.362L837.95 258.126L800.52 250.244Z" fill="white"/>
<path d="M879.183 190.326L882.722 207.134H875.643L879.183 190.326Z" fill="white"/>
<path d="M879.183 223.391L875.643 206.583L882.722 206.583L879.183 223.391Z" fill="white"/>
<path d="M895.715 206.858L878.907 210.398L878.907 203.319L895.715 206.858Z" fill="white"/>
<path d="M862.65 206.858L879.458 203.319L879.458 210.398L862.65 206.858Z" fill="white"/>
<path d="M934.492 136.151L936.867 147.432H932.116L934.492 136.151Z" fill="white"/>
<path d="M934.492 158.343L932.116 147.062L936.867 147.062L934.492 158.343Z" fill="white"/>
<path d="M945.588 147.247L934.307 149.623L934.307 144.872L945.588 147.247Z" fill="white"/>
<path d="M923.396 147.247L934.677 144.872L934.677 149.623L923.396 147.247Z" fill="white"/>
<path d="M764.275 217.179L767.815 233.987H760.736L764.275 217.179Z" fill="white"/>
<path d="M764.275 250.244L760.736 233.436L767.815 233.436L764.275 250.244Z" fill="white"/>
<path d="M780.808 233.712L764 237.251L764 230.172L780.808 233.712Z" fill="white"/>
<path d="M747.743 233.712L764.551 230.172L764.551 237.251L747.743 233.712Z" fill="white"/>
<path d="M569.416 86.6162L572.956 103.424H565.877L569.416 86.6162Z" fill="white"/>
<path d="M569.416 119.682L565.877 102.873L572.956 102.873L569.416 119.682Z" fill="white"/>
<path d="M585.949 103.149L569.141 106.688L569.141 99.6091L585.949 103.149Z" fill="white"/>
<path d="M552.884 103.149L569.692 99.6092L569.692 106.688L552.884 103.149Z" fill="white"/>
<path d="M804.521 162.013L809.598 186.122H799.444L804.521 162.013Z" fill="white"/>
<path d="M804.521 209.44L799.444 185.331L809.598 185.331L804.521 209.44Z" fill="white"/>
<path d="M828.234 185.727L804.126 190.804L804.126 180.65L828.234 185.727Z" fill="white"/>
<path d="M780.808 185.726L804.916 180.649L804.916 190.803L780.808 185.726Z" fill="white"/>
<path d="M987.394 807.696L995.276 845.126H979.511L987.394 807.696Z" fill="white"/>
<path d="M987.394 881.329L979.512 843.899L995.276 843.899L987.394 881.329Z" fill="white"/>
<path d="M1024.21 844.512L986.78 852.395L986.78 836.63L1024.21 844.512Z" fill="white"/>
<path d="M950.578 844.512L988.007 836.63L988.007 852.395L950.578 844.512Z" fill="white"/>
<path d="M115.686 757.79L123.568 795.22H107.803L115.686 757.79Z" fill="white"/>
<path d="M115.686 831.422L107.804 793.993L123.568 793.993L115.686 831.422Z" fill="white"/>
<path d="M152.502 794.606L115.072 802.489L115.072 786.724L152.502 794.606Z" fill="white"/>
<path d="M78.8698 794.606L116.299 786.724L116.299 802.489L78.8698 794.606Z" fill="white"/>
<path d="M42.6251 761.541L46.1647 778.349H39.0855L42.6251 761.541Z" fill="white"/>
<path d="M42.6251 794.606L39.0855 777.798L46.1648 777.798L42.6251 794.606Z" fill="white"/>
<path d="M59.1577 778.074L42.3496 781.613L42.3496 774.534L59.1577 778.074Z" fill="white"/>
<path d="M26.0925 778.074L42.9007 774.534L42.9007 781.614L26.0925 778.074Z" fill="white"/>
<path d="M82.8708 706.375L87.9478 730.484H77.7938L82.8708 706.375Z" fill="white"/>
<path d="M82.8708 753.802L77.7938 729.693L87.9478 729.693L82.8708 753.802Z" fill="white"/>
<path d="M106.584 730.089L82.4756 735.166L82.4756 725.011L106.584 730.089Z" fill="white"/>
<path d="M59.1576 730.088L83.266 725.011L83.266 735.166L59.1576 730.088Z" fill="white"/>
<circle cx="882.164" cy="125.62" r="1.10593" fill="white"/>
<circle cx="929.44" cy="250.244" r="1.10593" fill="white"/>
<circle cx="846.438" cy="180.97" r="1.10593" fill="white"/>
<circle cx="802.2" cy="332.401" r="1.10593" fill="white"/>
<circle cx="711.036" cy="189.22" r="1.10593" fill="white"/>
<circle cx="794.984" cy="83.2982" r="1.10593" fill="white"/>
<circle cx="922.29" cy="334.613" r="1.10593" fill="white"/>
<circle cx="598.179" cy="85.5101" r="1.10593" fill="white"/>
<circle cx="546.273" cy="55.6247" r="1.10593" fill="white"/>
<circle cx="38.538" cy="836.517" r="1.10593" fill="white"/>
<circle cx="186.329" cy="837.623" r="1.10593" fill="white"/>
<circle cx="89.4055" cy="766.647" r="1.10593" fill="white"/>
<circle cx="151.396" cy="681.709" r="1.10593" fill="white"/>
<circle cx="986.288" cy="904.782" r="1.10593" fill="white"/>
<circle cx="1025.32" cy="809.851" r="1.10593" fill="white"/>
<circle cx="951.684" cy="772.195" r="1.10593" fill="white"/>
<circle cx="551.778" cy="125.62" r="1.10593" fill="white"/>
</svg>
